<?xml version="1.0" encoding="UTF-8" standalone="no"?>
<svg
   xmlns:dc="http://purl.org/dc/elements/1.1/"
   xmlns:cc="http://creativecommons.org/ns#"
   xmlns:rdf="http://www.w3.org/1999/02/22-rdf-syntax-ns#"
   xmlns:svg="http://www.w3.org/2000/svg"
   xmlns="http://www.w3.org/2000/svg"
   xml:space="preserve"
   preserveAspectRatio="xMinYMin meet"
   enable-background="new 0 0 1023.412 133.024"
   viewBox="0 0 588.51502 111.739"
   width="588.51501"
   height="111.739"
   y="0px"
   x="0px"
   id="Layer_1"
   version="1.1"><metadata
     id="metadata21"><rdf:RDF><cc:Work
         rdf:about=""><dc:format>image/svg+xml</dc:format><dc:type
           rdf:resource="http://purl.org/dc/dcmitype/StillImage" /><dc:title></dc:title></cc:Work></rdf:RDF></metadata><defs
     id="defs19"><clipPath
       id="clipPath31"
       clipPathUnits="userSpaceOnUse"><rect
         y="-1.7719227"
         x="-3.148685"
         height="139.34781"
         width="619.26385"
         id="rect33"
         style="opacity:0.52999998;fill:#00ff00;fill-opacity:1;stroke:#000000;stroke-opacity:1" /></clipPath><clipPath
       id="clipPath35"
       clipPathUnits="userSpaceOnUse"><rect
         y="-1.7719227"
         x="-3.148685"
         height="139.34781"
         width="619.26385"
         id="rect37"
         style="opacity:0.52999998;fill:#00ff00;fill-opacity:1;stroke:#000000;stroke-opacity:1" /></clipPath></defs><g
     transform="translate(-12.19,-10.975)"
     clip-path="url(#clipPath35)"
     id="g8"><path
       fill-rule="evenodd"
       clip-rule="evenodd"
       fill="#ED1C24"
       d="m 125.701,114.251 c 0,0 -0.503,-18.9 -0.503,-20.887 0,-1.991 1.514,-2.486 3.526,-1.991 2.018,0.495 19.664,3.978 19.664,3.978 0,0 -1.512,-3.978 -2.521,-6.465 -1.006,-2.977 0.506,-3.478 1.009,-3.973 C 147.379,84.408 166.542,68 166.542,68 l -3.026,-1.491 c -2.017,-0.993 -1.509,-2.484 -1.008,-3.48 0,-0.996 3.026,-11.935 3.026,-11.935 0,0 -8.07,1.489 -10.084,1.989 -1.514,0 -2.018,-0.5 -2.521,-1.494 -0.506,-0.993 -2.523,-5.967 -2.523,-5.967 0,0 -10.082,10.941 -10.082,11.437 -2.018,1.494 -4.038,0.5 -3.529,-1.491 0,-1.989 5.041,-24.367 5.041,-24.367 0,0 -5.549,3.48 -7.059,4.476 -2.017,0.996 -2.521,0.996 -3.529,-0.996 -1.008,-1.491 -7.561,-14.919 -7.561,-14.919 v 0 c 0,0 -7.061,13.428 -7.564,14.919 -1.011,1.992 -2.017,1.992 -4.037,0.996 -1.509,-0.996 -7.056,-4.476 -7.056,-4.476 0,0 5.044,22.377 5.044,24.367 0.503,1.992 -1.515,2.985 -3.026,1.491 -0.506,-0.496 -10.59,-11.437 -10.59,-11.437 0,0 -2.017,4.974 -2.521,5.967 -0.503,0.993 -1.006,1.494 -2.518,1.494 -2.02,-0.5 -10.59,-1.989 -10.59,-1.989 0,0 3.526,10.938 4.035,11.935 0,0.996 0.503,2.487 -1.514,3.48 L 80.324,68 c 0,0 19.158,16.408 19.661,16.914 0.506,0.495 2.018,0.996 1.009,3.973 -1.009,2.487 -2.521,6.465 -2.521,6.465 0,0 18.152,-3.482 19.664,-3.978 2.02,-0.495 3.529,0 3.529,1.991 0,1.986 -0.503,20.887 -0.503,20.887 h 4.538 z"
       id="path2" /><polygon
       fill-rule="evenodd"
       clip-rule="evenodd"
       fill="#ED1C24"
       points="68.142,122.713 68.142,11.311 12.19,11.311 12.19,122.713 "
       id="polygon4" /><polygon
       fill-rule="evenodd"
       clip-rule="evenodd"
       fill="#ED1C24"
       points="234.758,122.713 234.758,11.311 178.807,11.311 178.807,122.713 "
       id="polygon6" /></g><path
     transform="translate(-12.19,-10.975)"
     clip-path="url(#clipPath31)"
     fill-rule="evenodd"
     clip-rule="evenodd"
     d="m 380.057,25.99 c -0.258,-5.183 -1.899,-15.015 -18.358,-15.015 -11.405,0 -16.193,7.213 -16.193,14.555 0,8.199 6.95,10.363 10.036,11.081 l 9.636,2.231 c 7.739,1.832 10.03,3.405 10.03,8.325 0,6.754 -7.74,7.933 -12.321,7.933 -6.034,0 -12.984,-2.49 -12.984,-11.014 h -5.97 c 0,4.394 0.79,8.325 4.788,11.932 2.1,1.904 5.511,4.536 14.238,4.536 8.049,0 18.42,-3.093 18.42,-14.238 0,-7.474 -4.592,-11.147 -10.691,-12.587 L 357.25,30.646 c -2.76,-0.66 -5.577,-1.968 -5.577,-5.97 0,-7.146 6.754,-8.26 10.75,-8.26 5.314,0 11.351,2.296 11.671,9.574 z m 21.247,3.802 V 25.01 h -5.5 v -9.576 h -5.779 v 9.576 h -4.654 v 4.783 h 4.654 v 22.62 c 0,4.13 1.249,7.353 6.956,7.353 0.588,0 2.229,-0.258 4.324,-0.467 v -4.522 h -2.033 c -1.176,0 -3.467,0 -3.467,-2.691 V 29.792 Z m 10.753,5.64 c 0.392,-2.626 1.311,-6.623 7.874,-6.623 5.438,0 8.059,1.966 8.059,5.573 0,3.411 -1.63,3.939 -3.013,4.066 l -9.504,1.179 c -9.577,1.184 -10.433,7.869 -10.433,10.755 0,5.897 4.458,9.909 10.763,9.909 6.687,0 10.154,-3.158 12.383,-5.585 0.196,2.626 0.991,5.258 6.099,5.258 1.321,0 2.167,-0.392 3.147,-0.666 v -4.197 c -0.65,0.131 -1.373,0.266 -1.899,0.266 -1.176,0 -1.899,-0.591 -1.899,-2.036 V 33.595 c 0,-8.784 -9.968,-9.574 -12.724,-9.574 -8.462,0 -13.9,3.217 -14.158,11.411 z m 15.798,11.996 c 0,4.595 -5.242,8.067 -10.618,8.067 -4.324,0 -6.233,-2.229 -6.233,-5.967 0,-4.326 4.53,-5.18 7.347,-5.572 7.151,-0.921 8.596,-1.445 9.504,-2.162 z M 455.986,29.792 V 25.01 h -5.5 v -9.576 h -5.769 v 9.576 h -4.654 v 4.783 h 4.654 v 22.62 c 0,4.13 1.238,7.353 6.945,7.353 0.588,0 2.229,-0.258 4.324,-0.467 v -4.522 h -2.023 c -1.187,0 -3.478,0 -3.478,-2.691 V 29.792 Z m 11.548,-4.782 h -5.779 v 34.299 h 5.779 z m 0,-6.233 v -6.553 h -5.779 v 6.553 z m 33.702,16 c 0,-1.703 -0.856,-10.755 -13.116,-10.755 -6.749,0 -12.982,3.408 -12.982,10.949 0,4.721 3.147,7.149 7.936,8.331 l 6.687,1.636 c 4.922,1.249 6.821,2.164 6.821,4.922 0,3.803 -3.746,5.438 -7.874,5.438 -8.122,0 -8.916,-4.324 -9.112,-7.015 h -5.583 c 0.206,4.13 1.187,12.009 14.767,12.009 7.729,0 13.57,-4.272 13.57,-11.351 0,-4.657 -2.498,-7.28 -9.639,-9.05 l -5.768,-1.442 c -4.458,-1.115 -6.233,-1.77 -6.233,-4.592 0,-4.259 5.056,-4.848 6.821,-4.848 7.275,0 8.06,3.602 8.122,5.769 h 5.583 z m 20.329,-4.985 V 25.01 h -5.511 v -9.576 h -5.768 v 9.576 h -4.654 v 4.783 h 4.654 v 22.62 c 0,4.13 1.249,7.353 6.955,7.353 0.589,0 2.219,-0.258 4.324,-0.467 v -4.522 h -2.043 c -1.177,0 -3.468,0 -3.468,-2.691 V 29.792 Z m 11.538,-4.782 h -5.769 v 34.299 h 5.769 z m 0,-6.233 v -6.553 h -5.769 v 6.553 z m 35.673,17.77 c -0.464,-5.97 -3.88,-12.525 -12.857,-12.525 -11.331,0 -16.449,8.459 -16.449,19.083 0,9.899 5.696,17.187 15.334,17.187 10.03,0 13.374,-7.68 13.973,-13.124 h -5.583 c -0.98,5.245 -4.323,8.129 -8.193,8.129 -7.936,0 -9.37,-7.278 -9.37,-13.178 0,-6.099 2.291,-12.915 9.433,-12.915 4.859,0 7.419,2.755 8.131,7.342 h 5.581 z m 30.814,-1.77 c 0,-1.703 -0.856,-10.755 -13.116,-10.755 -6.748,0 -12.981,3.408 -12.981,10.949 0,4.721 3.147,7.149 7.936,8.331 l 6.688,1.636 c 4.922,1.249 6.82,2.164 6.82,4.922 0,3.803 -3.735,5.438 -7.873,5.438 -8.121,0 -8.916,-4.324 -9.112,-7.015 h -5.563 c 0.187,4.13 1.177,12.009 14.747,12.009 7.739,0 13.569,-4.272 13.569,-11.351 0,-4.657 -2.486,-7.28 -9.628,-9.05 l -5.778,-1.442 c -4.458,-1.115 -6.233,-1.77 -6.233,-4.592 0,-4.259 5.057,-4.848 6.821,-4.848 7.275,0 8.069,3.602 8.132,5.769 h 5.571 z M 384.917,88.536 c -0.918,-7.869 -7.213,-15.407 -19.349,-15.407 -13.702,0 -21.962,10.03 -21.962,24.519 0,18.096 10.49,25.066 21.178,25.066 3.539,0 17.966,-0.795 20.587,-18.575 h -6.161 c -2.167,10.949 -9.308,12.925 -13.436,12.925 -11.679,0 -15.61,-8.528 -15.61,-19.606 0,-12.394 6.888,-18.688 15.404,-18.688 4.53,0 11.413,1.507 13.178,9.768 h 6.171 z m 12.528,9.049 c 0.381,-2.621 1.311,-6.625 7.863,-6.625 5.438,0 8.059,1.971 8.059,5.583 0,3.405 -1.641,3.921 -3.013,4.056 l -9.504,1.182 c -9.577,1.181 -10.433,7.863 -10.433,10.752 0,5.897 4.458,9.912 10.763,9.912 6.687,0 10.165,-3.158 12.394,-5.583 0.186,2.621 0.98,5.253 6.088,5.253 1.311,0 2.167,-0.387 3.147,-0.666 v -4.194 c -0.65,0.129 -1.373,0.258 -1.899,0.258 -1.176,0 -1.898,-0.588 -1.898,-2.022 V 95.749 c 0,-8.787 -9.969,-9.576 -12.724,-9.576 -8.462,0 -13.9,3.22 -14.158,11.413 h 5.315 z m 15.799,11.992 c 0,4.598 -5.252,8.069 -10.629,8.069 -4.324,0 -6.223,-2.224 -6.223,-5.964 0,-4.324 4.52,-5.181 7.337,-5.573 7.151,-0.923 8.596,-1.444 9.515,-2.167 z m 43.464,-11.465 c 0,-9.772 -6.687,-11.939 -11.991,-11.939 -5.902,0 -9.112,4.004 -10.36,5.841 h -0.134 v -4.86 h -5.449 v 34.302 h 5.769 v -18.688 c 0,-9.318 5.779,-11.408 9.061,-11.408 5.634,0 7.337,3.008 7.337,8.982 v 21.114 h 5.769 V 98.112 Z m 13.643,-0.527 c 0.392,-2.621 1.311,-6.625 7.874,-6.625 5.438,0 8.06,1.971 8.06,5.583 0,3.405 -1.641,3.921 -3.013,4.056 l -9.515,1.182 c -9.566,1.181 -10.422,7.863 -10.422,10.752 0,5.897 4.458,9.912 10.763,9.912 6.687,0 10.154,-3.158 12.383,-5.583 0.196,2.621 0.98,5.253 6.099,5.253 1.311,0 2.167,-0.387 3.137,-0.666 v -4.194 c -0.65,0.129 -1.362,0.258 -1.898,0.258 -1.176,0 -1.899,-0.588 -1.899,-2.022 V 95.749 c 0,-8.787 -9.958,-9.576 -12.713,-9.576 -8.462,0 -13.9,3.22 -14.168,11.413 h 5.312 z m 15.798,11.992 c 0,4.598 -5.242,8.069 -10.619,8.069 -4.334,0 -6.233,-2.224 -6.233,-5.964 0,-4.324 4.53,-5.181 7.348,-5.573 7.141,-0.923 8.596,-1.444 9.504,-2.167 z m 44.002,-35.2 h -5.769 v 17.171 l -0.124,0.465 c -1.394,-1.971 -4.004,-5.841 -10.236,-5.841 -9.112,0 -14.292,7.481 -14.292,17.109 0,8.204 3.405,19.163 15.077,19.163 3.343,0 7.274,-1.058 9.772,-5.717 h 0.134 v 4.727 h 5.438 z M 505.694,104.2 c 0,-4.385 0.454,-12.842 9.37,-12.842 8.338,0 9.256,8.982 9.256,14.55 0,9.117 -5.706,11.543 -9.38,11.543 -6.294,0 -9.246,-5.702 -9.246,-13.251 z m 37.573,-6.615 c 0.393,-2.621 1.301,-6.625 7.874,-6.625 5.438,0 8.06,1.971 8.06,5.583 0,3.405 -1.641,3.921 -3.023,4.056 l -9.494,1.182 c -9.587,1.181 -10.433,7.863 -10.433,10.752 0,5.897 4.458,9.912 10.753,9.912 6.697,0 10.154,-3.158 12.394,-5.583 0.195,2.621 0.98,5.253 6.099,5.253 1.3,0 2.156,-0.387 3.147,-0.666 v -4.194 c -0.671,0.129 -1.373,0.258 -1.909,0.258 -1.177,0 -1.899,-0.588 -1.899,-2.022 V 95.749 c 0,-8.787 -9.958,-9.576 -12.713,-9.576 -8.462,0 -13.91,3.22 -14.169,11.413 h 5.313 z m 15.809,11.992 c 0,4.598 -5.253,8.069 -10.629,8.069 -4.324,0 -6.223,-2.224 -6.223,-5.964 0,-4.324 4.52,-5.181 7.337,-5.573 7.142,-0.923 8.597,-1.444 9.515,-2.167 z"
     id="path12" /></svg>